<svg t="1739270232879" class="icon" viewBox="0 0 1462 1024" version="1.1" xmlns="http://www.w3.org/2000/svg" p-id="16011" width="64" height="64"><path d="M0 1024V0h1462.857143v1024z m1462.857143 0zM5.851429 1017.417143h1451.154285V6.582857H5.851429z" fill="#231F20" p-id="16012"></path><path d="M2.925714 708.022857h1457.005715v78.262857H2.925714z" fill="#FFFFFF" p-id="16013"></path><path d="M2.925714 629.028571h1457.005715v78.262858H2.925714z" fill="#BF0A30" p-id="16014"></path><path d="M2.925714 864.548571h1457.005715v78.262858H2.925714z" fill="#FFFFFF" p-id="16015"></path><path d="M2.925714 942.811429h1457.005715v78.262857H2.925714zM2.925714 786.285714h1457.005715v78.262857H2.925714z" fill="#BF0A30" p-id="16016"></path><path d="M2.925714 551.497143h1457.005715v78.262857H2.925714z" fill="#FFFFFF" p-id="16017"></path><path d="M2.925714 315.977143h1457.005715v78.262857H2.925714z" fill="#BF0A30" p-id="16018"></path><path d="M2.925714 81.188571h1457.005715v78.262858H2.925714z" fill="#FFFFFF" p-id="16019"></path><path d="M2.925714 159.451429h1457.005715v78.262857H2.925714zM2.925714 472.502857h1457.005715v78.262857H2.925714zM2.925714 2.925714h1457.005715v78.262857H2.925714z" fill="#BF0A30" p-id="16020"></path><path d="M2.925714 237.714286h1457.005715v78.262857H2.925714zM2.925714 394.24h1457.005715v78.262857H2.925714z" fill="#FFFFFF" p-id="16021"></path><path d="M2.925714 2.925714h582.948572v548.571429H2.925714z" fill="#002868" p-id="16022"></path><path d="M441.051429 32.182857l3.657142 13.165714h13.165715l-10.971429 8.045715 4.388572 13.165714L441.051429 58.514286l-10.971429 8.045714 4.388571-13.165714-10.971428-8.045715h13.165714l4.388572-13.165714zM441.051429 146.285714l3.657142 13.165715h13.165715l-10.971429 8.045714 4.388572 13.165714-10.24-8.045714-10.971429 8.045714 4.388571-13.165714-10.971428-8.045714h13.165714L441.051429 146.285714zM441.051429 260.388571l3.657142 13.165715h13.165715l-10.971429 8.045714 4.388572 13.165714-10.24-8.045714-10.971429 8.045714 4.388571-13.165714-10.971428-8.045714h13.165714l4.388572-13.165715zM441.051429 377.417143l3.657142 12.434286h13.165715l-10.971429 8.045714 4.388572 13.165714-10.24-8.045714-10.971429 8.045714 4.388571-13.165714-10.971428-8.045714h13.165714l4.388572-12.434286zM441.051429 488.594286l3.657142 13.165714h13.165715l-10.971429 8.045714 4.388572 12.434286-10.24-8.045714-10.971429 8.045714 4.388571-12.434286-10.971428-8.045714h13.165714l4.388572-13.165714zM343.04 32.182857l4.388571 13.165714h12.434286l-10.24 8.045715 4.388572 13.165714L343.04 58.514286l-10.24 8.045714 3.657143-13.165714-10.24-8.045715h13.165714l3.657143-13.165714zM343.04 146.285714l4.388571 13.165715h12.434286l-10.24 8.045714 4.388572 13.165714-10.971429-8.045714-10.24 8.045714 3.657143-13.165714-10.24-8.045714h13.165714L343.04 146.285714zM343.04 260.388571l4.388571 13.165715h12.434286l-10.24 8.045714 4.388572 13.165714-10.971429-8.045714-10.24 8.045714 3.657143-13.165714-10.24-8.045714h13.165714l3.657143-13.165715zM343.04 377.417143l4.388571 12.434286h12.434286l-10.24 8.045714 4.388572 13.165714-10.971429-8.045714-10.24 8.045714 3.657143-13.165714-10.24-8.045714h13.165714l3.657143-12.434286zM343.04 488.594286l4.388571 13.165714h12.434286l-10.24 8.045714 4.388572 12.434286-10.971429-8.045714-10.24 8.045714 3.657143-12.434286-10.24-8.045714h13.165714l3.657143-13.165714zM245.76 32.182857l3.657143 13.165714h13.165714l-10.24 8.045715 3.657143 13.165714L245.76 58.514286l-10.971429 8.045714 4.388572-13.165714-10.24-8.045715h12.434286l4.388571-13.165714zM245.76 146.285714l3.657143 13.165715h13.165714l-10.24 8.045714 3.657143 13.165714-10.24-8.045714-10.971429 8.045714 4.388572-13.165714-10.24-8.045714h12.434286L245.76 146.285714zM245.76 260.388571l3.657143 13.165715h13.165714l-10.24 8.045714 3.657143 13.165714-10.24-8.045714-10.971429 8.045714 4.388572-13.165714-10.24-8.045714h12.434286l4.388571-13.165715zM245.76 377.417143l3.657143 12.434286h13.165714l-10.24 8.045714 3.657143 13.165714-10.24-8.045714-10.971429 8.045714 4.388572-13.165714-10.24-8.045714h12.434286l4.388571-12.434286zM245.76 488.594286l3.657143 13.165714h13.165714l-10.24 8.045714 3.657143 12.434286-10.24-8.045714-10.971429 8.045714 4.388572-12.434286-10.24-8.045714h12.434286l4.388571-13.165714zM147.748571 32.182857l4.388572 13.165714h13.165714l-10.971428 8.045715 4.388571 13.165714L147.748571 58.514286l-10.24 8.045714 4.388572-13.165714-10.971429-8.045715h13.165715l3.657142-13.165714zM147.748571 146.285714l4.388572 13.165715h13.165714l-10.971428 8.045714 4.388571 13.165714-10.971429-8.045714-10.24 8.045714 4.388572-13.165714-10.971429-8.045714h13.165715L147.748571 146.285714zM147.748571 260.388571l4.388572 13.165715h13.165714l-10.971428 8.045714 4.388571 13.165714-10.971429-8.045714-10.24 8.045714 4.388572-13.165714-10.971429-8.045714h13.165715l3.657142-13.165715zM147.748571 377.417143l4.388572 12.434286h13.165714l-10.971428 8.045714 4.388571 13.165714-10.971429-8.045714-10.24 8.045714 4.388572-13.165714-10.971429-8.045714h13.165715l3.657142-12.434286zM147.748571 488.594286l4.388572 13.165714h13.165714l-10.971428 8.045714 4.388571 12.434286-10.971429-8.045714-10.24 8.045714 4.388572-12.434286-10.971429-8.045714h13.165715l3.657142-13.165714zM50.468571 32.182857l4.388572 13.165714h13.165714L57.051429 53.394286l3.657142 13.165714L50.468571 58.514286 40.228571 66.56 43.885714 53.394286 33.645714 45.348571h13.165715L50.468571 32.182857zM50.468571 146.285714l4.388572 13.165715h13.165714l-10.971428 8.045714 3.657142 13.165714-10.24-8.045714-10.24 8.045714 3.657143-13.165714-10.24-8.045714h13.165715L50.468571 146.285714zM50.468571 260.388571l4.388572 13.165715h13.165714l-10.971428 8.045714 3.657142 13.165714-10.24-8.045714-10.24 8.045714 3.657143-13.165714-10.24-8.045714h13.165715l3.657142-13.165715zM50.468571 377.417143l4.388572 12.434286h13.165714l-10.971428 8.045714 3.657142 13.165714-10.24-8.045714-10.24 8.045714 3.657143-13.165714-10.24-8.045714h13.165715l3.657142-12.434286zM50.468571 488.594286l4.388572 13.165714h13.165714l-10.971428 8.045714 3.657142 12.434286-10.24-8.045714-10.24 8.045714 3.657143-12.434286-10.24-8.045714h13.165715l3.657142-13.165714zM490.788571 89.234286l3.657143 13.165714h13.165715l-10.971429 8.045714 4.388571 13.165715-10.24-8.045715-10.971428 8.045715 4.388571-13.165715-10.971428-8.045714h13.165714l4.388571-13.165714zM490.788571 206.994286l3.657143 13.165714h13.165715l-10.971429 8.045714 4.388571 13.165715-10.24-8.045715-10.971428 8.045715 4.388571-13.165715-10.971428-8.045714h13.165714l4.388571-13.165714zM489.325714 322.56l4.388572 13.165714h12.434285l-10.24 8.045715 4.388572 12.434285-10.971429-8.045714-10.24 8.045714 3.657143-12.434285-10.24-8.045715h13.165714l3.657143-13.165714zM488.594286 436.662857l3.657143 12.434286h13.165714l-10.24 8.045714 3.657143 13.165714-10.24-8.045714-10.24 8.045714 3.657143-13.165714-10.24-8.045714h12.434285l4.388572-12.434286zM392.777143 89.234286l4.388571 13.165714h13.165715l-10.971429 8.045714 4.388571 13.165715-10.971428-8.045715-10.24 8.045715 3.657143-13.165715-10.24-8.045714h13.165714l3.657143-13.165714zM392.777143 206.994286l4.388571 13.165714h13.165715l-10.971429 8.045714 4.388571 13.165715-10.971428-8.045715-10.24 8.045715 3.657143-13.165715-10.24-8.045714h13.165714l3.657143-13.165714zM392.045714 322.56l3.657143 13.165714h13.165714l-10.24 8.045715 3.657143 12.434285-10.24-8.045714-10.971428 8.045714 4.388571-12.434285-10.24-8.045715h12.434286l4.388571-13.165714zM390.582857 436.662857l4.388572 12.434286h13.165714l-10.971429 8.045714 4.388572 13.165714-10.971429-8.045714-10.24 8.045714 4.388572-13.165714-10.971429-8.045714h13.165714l3.657143-12.434286zM295.497143 85.577143l3.657143 12.434286h13.165714l-10.24 8.777142 3.657143 12.434286-10.24-8.045714-10.971429 8.045714 4.388572-12.434286-10.24-8.777142h12.434285l4.388572-12.434286zM295.497143 203.337143l3.657143 12.434286h13.165714l-10.24 8.045714 3.657143 13.165714-10.24-8.045714-10.971429 8.045714 4.388572-13.165714-10.24-8.045714h12.434285l4.388572-12.434286zM294.765714 318.171429l3.657143 13.165714h13.165714l-10.971428 8.045714 4.388571 13.165714-10.24-8.045714-10.971428 8.045714 4.388571-13.165714-10.971428-8.045714h13.165714l4.388571-13.165714zM293.302857 432.274286l4.388572 13.165714h13.165714l-10.971429 8.045714 4.388572 13.165715-10.971429-8.045715-10.24 8.045715 3.657143-13.165715-10.24-8.045714h13.165714l3.657143-13.165714zM198.217143 84.114286l3.657143 13.165714h13.165714l-10.971429 8.045714 4.388572 13.165715-10.24-8.045715-10.971429 8.045715 4.388572-13.165715-10.971429-8.045714h13.165714l4.388572-13.165714zM198.217143 201.874286l3.657143 13.165714h13.165714l-10.971429 8.045714 4.388572 13.165715-10.24-8.045715-10.971429 8.045715 4.388572-13.165715-10.971429-8.045714h13.165714l4.388572-13.165714zM196.754286 317.44l4.388571 12.434286h12.434286l-10.24 8.777143 4.388571 12.434285-10.971428-8.045714-10.24 8.045714 3.657143-12.434285-10.24-8.777143h13.165714l3.657143-12.434286zM196.022857 430.811429l3.657143 13.165714h13.165714l-10.24 8.045714 3.657143 13.165714-10.24-8.045714-10.971428 8.045714 4.388571-13.165714-10.971429-8.045714h13.165715l4.388571-13.165714zM100.205714 81.92l4.388572 13.165714h12.434285l-10.24 8.045715 3.657143 13.165714-10.24-8.045714-10.24 8.045714 3.657143-13.165714-10.24-8.045715h13.165714l3.657143-13.165714zM100.205714 199.68l4.388572 13.165714h12.434285l-10.24 8.045715 3.657143 13.165714-10.24-8.045714-10.24 8.045714 3.657143-13.165714-10.24-8.045715h13.165714l3.657143-13.165714zM99.474286 315.245714l3.657143 13.165715h13.165714l-10.24 8.045714 3.657143 12.434286-10.24-7.314286-10.971429 7.314286 4.388572-12.434286-10.24-8.045714h12.434285l4.388572-13.165715zM98.011429 429.348571l4.388571 13.165715h13.165714l-10.971428 8.045714 4.388571 12.434286-10.971428-8.045715-10.24 8.045715 3.657142-12.434286-10.24-8.045714h13.165715l3.657143-13.165715zM538.331429 32.182857l3.657142 13.165714h13.165715l-10.24 8.045715 3.657143 13.165714L538.331429 58.514286l-10.971429 8.045714 4.388571-13.165714-10.24-8.045715h12.434286l4.388572-13.165714zM538.331429 146.285714l3.657142 13.165715h13.165715l-10.24 8.045714 3.657143 13.165714-10.24-8.045714-10.971429 8.045714 4.388571-13.165714-10.24-8.045714h12.434286L538.331429 146.285714zM538.331429 260.388571l3.657142 13.165715h13.165715l-10.24 8.045714 3.657143 13.165714-10.24-8.045714-10.971429 8.045714 4.388571-13.165714-10.24-8.045714h12.434286l4.388572-13.165715zM538.331429 377.417143l3.657142 12.434286h13.165715l-10.24 8.045714 3.657143 13.165714-10.24-8.045714-10.971429 8.045714 4.388571-13.165714-10.24-8.045714h12.434286l4.388572-12.434286zM538.331429 488.594286l3.657142 13.165714h13.165715l-10.24 8.045714 3.657143 12.434286-10.24-8.045714-10.971429 8.045714 4.388571-12.434286-10.24-8.045714h12.434286l4.388572-13.165714z" fill="#FFFFFF" p-id="16023"></path></svg>