<svg t="1738897238067" class="icon" viewBox="0 0 1024 1024" version="1.1" xmlns="http://www.w3.org/2000/svg" p-id="7810" width="64" height="64"><path d="M0.00032 0m64 0l896 0q64 0 64 64l0 896q0 64-64 64l-896 0q-64 0-64-64l0-896q0-64 64-64Z" fill="#3386FB" p-id="7811"></path><path d="M960.00032 0a64 64 0 0 1 64 64v896c0 17.696-7.168 33.696-18.72 45.28L18.75232 18.752A63.808 63.808 0 0 1 64.00032 0h896z" fill="#BDBDBD" p-id="7812"></path><path d="M0.00032 64a64 64 0 0 1 64-64h65.12l451.52 451.552L1024.00032 894.88V960a64 64 0 0 1-64 64h-33.12L469.88832 567.04 0.00032 97.088V64z" fill="#F1F1F1" p-id="7813"></path><path d="M960.00032 0c17.696 0 33.728 7.2 45.312 18.784L18.78432 1005.312A63.808 63.808 0 0 1 0.00032 960V64a64 64 0 0 1 64-64h896z" fill="#00A45D" p-id="7814"></path><path d="M231.23232 212.384v43.264h64.8a58.56 58.56 0 0 1-20.096 28.352c-13.696 10.56-30.656 16-47.936 15.488a83.936 83.936 0 0 1-62.048-24.384 76.896 76.896 0 0 1-24.64-56.96 72.192 72.192 0 0 1 10.944-38.592c7.488-12.16 18.144-22.08 30.816-28.672 24.32-13.44 53.632-14.4 78.752-2.528 13.216 5.824 25.28 14.016 35.584 24.128l7.968 7.648 32.832-31.616-8.64-8.256a149.376 149.376 0 0 0-105.376-44.16A124.64 124.64 0 0 0 131.90432 132.48 118.976 118.976 0 0 0 96.00032 218.56a120.736 120.736 0 0 0 36.032 86.848 128 128 0 0 0 95.456 36.928 117.44 117.44 0 0 0 84.672-31.52 118.784 118.784 0 0 0 33.696-86.976l0.192-11.808-114.816 0.32z" fill="#FFFFFF" p-id="7815"></path><path d="M960.00032 0a64 64 0 0 1 64 64v65.12L129.12032 1024H64.00032a64 64 0 0 1-64-64v-33.12L926.91232 0H960.00032z" fill="#FFDF2E" p-id="7816"></path><path d="M991.45632 199.008c-16.544-107.84-115.328-181.504-220.672-164.576-89.76 14.432-157.536 90.976-162.784 183.84a249.504 249.504 0 0 0 28.64 104.864c11.04 19.232 26.464 40.64 37.44 59.904 17.664 29.952 37.504 57.792 55.136 87.744 17.024 29.12 31.04 59.968 41.824 92.064 5.44 16.832 20.192 53.44 22.08 70.72 0 4.288 4.384 6.432 8.8 6.432 4.448 0 6.624 0 6.624-6.4 0.96-14.464 26.944-79.68 33.056-94.336 8.8-21.408 19.84-42.816 30.848-64.256 26.432-44.928 55.072-87.744 81.536-132.704 2.56-5.184 5.504-10.208 8.8-14.976a239.808 239.808 0 0 0 28.672-102.72c0.736-5.152 0.736-13.696 0-25.6z" fill="#DE4A37" p-id="7817"></path><path d="M736.00032 224.064c1.056-32.032 25.12-58.88 57.408-64.064h9.216c36.032 2.176 63.488 32.576 61.248 67.872-2.208 35.328-33.248 62.176-69.312 60a66.688 66.688 0 0 1-12.608-1.984A68.32 68.32 0 0 1 736.00032 224.064z" fill="#812B24" p-id="7818"></path></svg>