<svg t="1737283492539" class="icon" viewBox="0 0 1024 1024" version="1.1" xmlns="http://www.w3.org/2000/svg" p-id="12131" width="64" height="64"><path d="M364.8 524.8h166.4l38.4 102.4h44.8L473.6 262.4h-51.2L281.6 627.2h44.8l38.4-102.4zM448 307.2l70.4 185.6H377.6L448 307.2z" fill="#ffffff" p-id="12132"></path><path d="M832 256h-64V192c0-38.4-25.6-64-64-64H192c-38.4 0-64 25.6-64 64v512c0 38.4 25.6 64 64 64h64v64c0 38.4 25.6 64 64 64h512c38.4 0 64-25.6 64-64V320c0-38.4-25.6-64-64-64zM192 192v-32 32h512v512H192V192z m640 640H320v-64h384c38.4 0 64-25.6 64-64V320h64v512z" fill="#ffffff" p-id="12133"></path></svg>