<svg t="1737041638505" class="icon" viewBox="0 0 1024 1024" version="1.1" xmlns="http://www.w3.org/2000/svg" p-id="11684" width="64" height="64"><path d="M281.872762 458.657094c59.282175 118.564349 160.907737 215.95547 279.472086 279.472086l93.157703-93.157703c12.703323-12.703323 29.641087-16.937764 42.34441-8.468882 46.578852 16.937764 97.392144 25.406646 152.439878 25.406646 25.406646 0 42.34441 16.937764 42.34441 42.34441l0 143.969972c0 25.406646-16.937764 42.34441-42.34441 42.34441-398.036435 0-719.852932-321.816496-719.852932-719.852932 0-25.406646 16.937764-42.34441 42.34441-42.34441l148.205437 0c25.406646 0 42.34441 16.937764 42.34441 42.34441 0 50.813293 8.468882 101.626585 25.406646 152.439878 4.234441 12.703323 0 29.641087-8.468882 42.34441L281.872762 458.657094z" fill="#bfbfbf" p-id="11685"></path></svg>