<svg t="1737039901065" class="icon" viewBox="0 0 1024 1024" version="1.1" xmlns="http://www.w3.org/2000/svg" p-id="4314" width="64" height="64"><path d="M360.746667 213.333333c15.36 57.813333 38.613333 112.426667 68.650666 162.517334a3237.333333 3237.333333 0 0 0-57.6 70.741333 703.104 703.104 0 0 0 205.824 205.696c22.613333-17.749333 46.250667-36.949333 70.869334-57.472A630.229333 630.229333 0 0 0 810.666667 663.253333L749.226667 810.666667l-9.984-3.114667-1.28 3.114667A777.386667 777.386667 0 0 1 213.333333 286.037333l3.029334-1.237333A786.133333 786.133333 0 0 1 213.333333 274.773333L360.746667 213.333333z" fill="#ffffff" p-id="4315"></path></svg>