<svg t="1737081291355" class="icon" viewBox="0 0 1024 1024" version="1.1" xmlns="http://www.w3.org/2000/svg" p-id="8564" width="64" height="64"><path d="M947.408 342.868c-3.328-45.38-40.088-85.436-80.06-88.332a5327.6 5327.6 0 0 0-48.452-3.036c-0.084-0.8-0.152-1.596-0.24-2.396-28.508-0.788-57.02-1.5-85.528-2.148l0.02 0.228c-14.88-0.628-29.752-1.188-44.628-1.684-0.552-33.588-7.92-67.38-21.752-101.604-7.72-18.204-27.76-38.336-41.932-43.468-76.112-25.788-149.556-25.788-225.668 0.004-14.172 5.124-34.208 25.26-41.932 43.464-13.832 34.224-21.204 68.012-21.756 101.6-17.016 0.572-34.036 1.24-51.056 1.976l0.024-0.26c-29.984 0.664-59.976 1.396-89.96 2.204-0.104 0.916-0.188 1.828-0.292 2.74-12.516 0.756-25.032 1.532-37.552 2.38-39.976 2.896-76.736 42.952-80.06 88.332a2812 2812 0 0 0 8.144 489.08c4.888 45.368 42.056 87.164 80.96 91.772 13.756 1.56 27.508 3.008 41.264 4.38 0.2 1.332 0.376 2.664 0.58 3.996 29.224 1.32 58.44 2.516 87.672 3.596l-0.004-0.056a3062.32 3062.32 0 0 0 428 0.364l-0.012 0.108c27.788-1.068 55.576-2.228 83.356-3.516 0.168-1.18 0.308-2.364 0.476-3.544 17.096-1.648 34.196-3.396 51.292-5.332 38.9-4.608 76.068-46.404 80.956-91.772 16.92-163.016 19.64-326.044 8.14-489.076z m-539.084-175.24a868.96 868.96 0 0 1 207.352 0 524.976 524.976 0 0 1 6.628 76.108 5254.02 5254.02 0 0 0-220.608 0 525.64 525.64 0 0 1 6.628-76.108z" p-id="8565" fill="#bfbfbf"></path></svg>